<svg xmlns="http://www.w3.org/2000/svg" xmlns:xlink="http://www.w3.org/1999/xlink" width="51" height="45" viewBox="0 0 51 45">
  <defs>
<!--    <clipPath id="clip-path">-->
<!--      <rect id="Rectangle_161" data-name="Rectangle 161" width="51" height="45" transform="translate(-2.056 0.5)" fill="#251f29"/>-->
<!--    </clipPath>-->
    <linearGradient id="linear-gradient" x1="0.197" y1="0.366" x2="0.837" y2="1.124" gradientUnits="objectBoundingBox">
      <stop offset="0" stop-color="#ff637b"/>
      <stop offset="1" stop-color="#e63950"/>
    </linearGradient>
    <linearGradient id="linear-gradient-2" x1="0.991" y1="1.305" x2="-0.054" y2="0.069" xlink:href="#linear-gradient"/>
    <linearGradient id="linear-gradient-3" x1="0.5" y1="0.253" x2="0.5" y2="0.974" gradientUnits="objectBoundingBox">
      <stop offset="0" stop-color="#e63950" stop-opacity="0"/>
      <stop offset="0.047" stop-color="#e4354b" stop-opacity="0.047"/>
      <stop offset="0.467" stop-color="#d31822" stop-opacity="0.467"/>
      <stop offset="0.799" stop-color="#c90709" stop-opacity="0.8"/>
      <stop offset="1" stop-color="#c50000"/>
    </linearGradient>
    <linearGradient id="linear-gradient-4" x1="0.72" y1="0.941" x2="0.054" y2="0.16" xlink:href="#linear-gradient-3"/>
    <linearGradient id="linear-gradient-5" x1="0.074" y1="0.212" x2="0.873" y2="0.752" gradientUnits="objectBoundingBox">
      <stop offset="0" stop-color="#0b799d"/>
      <stop offset="1" stop-color="#07485e"/>
    </linearGradient>
    <linearGradient id="linear-gradient-6" x1="0.325" y1="0.224" x2="1.08" y2="0.749" xlink:href="#linear-gradient-5"/>
    <linearGradient id="linear-gradient-7" x1="0.117" y1="0.221" x2="0.873" y2="0.747" xlink:href="#linear-gradient-5"/>
  </defs>
  <g id="bug" transform="translate(2.056 -0.5)" clip-path="url(#clip-path)">
    <g id="error" transform="translate(-0.42 3.456)">
      <g id="Group_66121" data-name="Group 66121" transform="translate(0 0)">
        <path id="Path_5549" data-name="Path 5549" d="M18.6,4.53.859,31.872A5.371,5.371,0,0,0,5.568,40.1H41.051a5.371,5.371,0,0,0,4.709-8.228L28.019,4.53a5.662,5.662,0,0,0-9.418,0Z" transform="translate(0 -2.012)" fill="url(#linear-gradient)"/>
        <path id="Path_5550" data-name="Path 5550" d="M16.693,7.978,4.992,26.011A3.542,3.542,0,0,0,8.1,31.438H31.5a3.542,3.542,0,0,0,3.106-5.427L22.905,7.978A3.735,3.735,0,0,0,16.693,7.978Z" transform="translate(3.51 1.145)" fill="url(#linear-gradient-2)"/>
        <path id="Path_5551" data-name="Path 5551" d="M5.567,26.317H41.051a5.468,5.468,0,0,0,5.566-5.505H0a5.468,5.468,0,0,0,5.566,5.505Z" transform="translate(0 11.771)" fill="url(#linear-gradient-3)"/>
      </g>
      <path id="Path_5552" data-name="Path 5552" d="M42.688,29.6,28.734,8.1,26.368,5.811a1.466,1.466,0,0,0-1.355-.7A1.357,1.357,0,0,0,23.574,6.5a6.239,6.239,0,0,1-1.243,3.858,9.8,9.8,0,0,0-.985-.213L16.815,5.811a1.466,1.466,0,0,0-1.355-.7,1.428,1.428,0,0,0-1.439,1.479,8.86,8.86,0,0,0,1.434,4.754A9.131,9.131,0,0,0,11.182,16.5L8.454,13.162,6.236,16.58A21.7,21.7,0,0,0,7.97,18.413c.2.219,1.632,1.868,1.818,2.034,0,.049-.015,1.026-.017,1.468A13.9,13.9,0,0,0,7,22.725c-2.8,1.22-3.122,2.807-3.122,3.7a1.4,1.4,0,0,0,.728,1.31s1.968,1.928,1.986,1.957a6.556,6.556,0,0,0-1.083,3.755,1.4,1.4,0,0,0,.728,1.31L9.418,37.83h28.56A5.371,5.371,0,0,0,42.688,29.6Z" transform="translate(3.073 0.258)" fill="url(#linear-gradient-4)"/>
      <g id="Group_66126" data-name="Group 66126" transform="translate(6.856 5.277)">
        <g id="Group_66124" data-name="Group 66124" transform="translate(0 6.902)">
          <g id="Group_66122" data-name="Group 66122">
            <path id="Path_5553" data-name="Path 5553" d="M6.264,25.95A1.506,1.506,0,0,1,4.733,24.47c0-3.928,3.5-7.123,7.8-7.123a1.48,1.48,0,1,1,0,2.959A4.482,4.482,0,0,0,7.794,24.47a1.506,1.506,0,0,1-1.531,1.479Z" transform="translate(-3.102 -2.948)" fill="#07485e"/>
            <path id="Path_5554" data-name="Path 5554" d="M12.53,17.641c-4.3,0-7.8-3.2-7.8-7.123a1.531,1.531,0,0,1,3.061,0,4.482,4.482,0,0,0,4.735,4.164,1.48,1.48,0,1,1,0,2.959Z" transform="translate(-3.102 -9.039)" fill="#07485e"/>
            <path id="Path_5555" data-name="Path 5555" d="M5.354,20.969A1.506,1.506,0,0,1,3.824,19.49c0-.89.417-2.565,3.214-3.786a15.973,15.973,0,0,1,6.214-1.141,1.48,1.48,0,1,1,0,2.959A12.983,12.983,0,0,0,8.3,18.4c-1.057.461-1.412.941-1.412,1.089A1.505,1.505,0,0,1,5.354,20.969Z" transform="translate(-3.824 -4.989)" fill="#07485e"/>
          </g>
          <g id="Group_66123" data-name="Group 66123" transform="translate(21.949 0)">
            <path id="Path_5556" data-name="Path 5556" d="M23.861,25.95a1.506,1.506,0,0,1-1.531-1.479A4.482,4.482,0,0,0,17.6,20.306a1.48,1.48,0,1,1,0-2.959c4.3,0,7.8,3.2,7.8,7.123a1.506,1.506,0,0,1-1.531,1.479Z" transform="translate(-16.065 -2.948)" fill="#07485e"/>
            <path id="Path_5557" data-name="Path 5557" d="M17.6,17.641a1.48,1.48,0,1,1,0-2.959,4.482,4.482,0,0,0,4.735-4.164,1.531,1.531,0,0,1,3.061,0C25.392,14.446,21.894,17.641,17.6,17.641Z" transform="translate(-16.065 -9.039)" fill="#07485e"/>
            <path id="Path_5558" data-name="Path 5558" d="M25.493,20.969a1.506,1.506,0,0,1-1.531-1.479c0-.148-.356-.628-1.412-1.089a12.983,12.983,0,0,0-4.954-.879,1.48,1.48,0,1,1,0-2.959A15.973,15.973,0,0,1,23.809,15.7c2.8,1.221,3.214,2.9,3.214,3.786a1.506,1.506,0,0,1-1.531,1.479Z" transform="translate(-16.065 -4.989)" fill="#07485e"/>
          </g>
        </g>
        <path id="Path_5559" data-name="Path 5559" d="M15.79,14.213a5.861,5.861,0,0,1-4.6-2.411,8.64,8.64,0,0,1-1.7-5.266,1.531,1.531,0,0,1,3.061,0c0,2.558,1.487,4.718,3.246,4.718s3.246-2.161,3.246-4.718a1.531,1.531,0,0,1,3.061,0,8.64,8.64,0,0,1-1.7,5.266A5.861,5.861,0,0,1,15.79,14.213Z" transform="translate(0.664 -5.056)" fill="#07485e"/>
        <g id="Group_66125" data-name="Group 66125" transform="translate(5.896 5.004)">
          <path id="Path_5560" data-name="Path 5560" d="M26.743,16.621a9.087,9.087,0,0,0-9.185-8.677q-.334,0-.668,0A9.087,9.087,0,0,0,7.7,16.621q-.06,2.319,0,4.639a9.087,9.087,0,0,0,9.185,8.677q.334,0,.668,0a9.087,9.087,0,0,0,9.185-8.677Q26.8,18.94,26.743,16.621Z" transform="translate(-6.666 -7.944)" fill="url(#linear-gradient-5)"/>
          <path id="Path_5561" data-name="Path 5561" d="M9.572,12.658a2.7,2.7,0,0,0-2.449,2.62c-.013,1.207-.018,2.6,0,3.463a9.594,9.594,0,0,0,3.863,7.3,4.133,4.133,0,0,0,6.679-3.125V12.241a77.2,77.2,0,0,0-8.1.417Z" transform="translate(-7.112 -4.793)" fill="url(#linear-gradient-6)"/>
          <path id="Path_5562" data-name="Path 5562" d="M21.1,12.658a2.7,2.7,0,0,1,2.449,2.62c.013,1.207.018,2.6,0,3.463a9.594,9.594,0,0,1-3.863,7.3A4.133,4.133,0,0,1,13,22.915V12.241a77.2,77.2,0,0,1,8.1.417Z" transform="translate(-2.442 -4.793)" fill="url(#linear-gradient-7)"/>
        </g>
      </g>
    </g>
  </g>
</svg>
