<svg xmlns="http://www.w3.org/2000/svg" width="12.404" height="8.683" viewBox="0 0 12.404 8.683">
  <path id="icon_players" d="M1.861,35.721a1.24,1.24,0,1,0-1.24-1.24A1.242,1.242,0,0,0,1.861,35.721Zm8.683,0a1.24,1.24,0,1,0-1.24-1.24A1.242,1.242,0,0,0,10.544,35.721Zm.62.62H9.924a1.237,1.237,0,0,0-.874.361,2.835,2.835,0,0,1,1.456,2.12h1.279a.62.62,0,0,0,.62-.62v-.62A1.242,1.242,0,0,0,11.164,36.342Zm-4.962,0a2.171,2.171,0,1,0-2.171-2.171A2.17,2.17,0,0,0,6.2,36.342Zm1.489.62H7.53a3,3,0,0,1-2.655,0H4.714a2.233,2.233,0,0,0-2.233,2.233v.558a.931.931,0,0,0,.93.93H8.993a.931.931,0,0,0,.93-.93v-.558A2.233,2.233,0,0,0,7.691,36.962ZM3.355,36.7a1.237,1.237,0,0,0-.874-.361H1.24A1.242,1.242,0,0,0,0,37.582v.62a.62.62,0,0,0,.62.62H1.9A2.842,2.842,0,0,1,3.355,36.7Z" transform="translate(0 -32)" fill="#392f46"/>
</svg>
