<svg xmlns="http://www.w3.org/2000/svg" width="10.178" height="8.261" viewBox="0 0 10.178 8.261">
  <g id="icon_goal" transform="translate(0 -48.2)">
    <path id="Path_5246" data-name="Path 5246" d="M355.735,178.309l.824-1.1a.3.3,0,0,0-.239-.477h-1.6a.3.3,0,0,0-.239.119l-.958,1.278a.3.3,0,0,0,0,.358l.958,1.277a.3.3,0,0,0,.239.119h1.6a.3.3,0,0,0,.239-.477Z" transform="translate(-346.441 -125.978)" fill="#392f46"/>
    <path id="Path_5247" data-name="Path 5247" d="M98.071,144.426h.69a2.257,2.257,0,1,0,0,.6h-.69a1.576,1.576,0,1,1,0-.6Z" transform="translate(-92.393 -92.393)" fill="#392f46"/>
    <path id="Path_5248" data-name="Path 5248" d="M7.567,54.145l-.716-.954a2.853,2.853,0,1,1,0-1.72l.716-.954a.889.889,0,0,1,.182-.18,4.131,4.131,0,1,0,0,3.989A.889.889,0,0,1,7.567,54.145Z" fill="#392f46"/>
    <path id="Path_5249" data-name="Path 5249" d="M159.512,207.414h.933a.979.979,0,1,0,0,.6h-.933a.3.3,0,1,1,0-.6Z" transform="translate(-155.382 -155.382)" fill="#392f46"/>
  </g>
</svg>
