<svg xmlns="http://www.w3.org/2000/svg" xmlns:xlink="http://www.w3.org/1999/xlink" width="761" height="761" viewBox="0 0 761 761">
<!--  <defs>-->
<!--    <clipPath id="clip-path">-->
<!--      <rect id="Rectangle_169" data-name="Rectangle 169" width="761" height="761" transform="translate(-3321 1557)" fill="#fff"/>-->
<!--    </clipPath>-->
<!--  </defs>-->
  <g id="Mask_Group_23" data-name="Mask Group 23" transform="translate(3321 -1557)" clip-path="url(#clip-path)">
    <g id="mega-ball" transform="translate(-3321 1557)">
      <path id="Path_5563" data-name="Path 5563" d="M750.021,289.5l-10.345-3.906L643.457,117.659,644,106.024A380.1,380.1,0,0,0,486.451,14.966l-7.357,5.2H279.769l-5.22-5.2A380.049,380.049,0,0,0,117,106.024l1.981,20.376L37.82,277.683,10.98,289.5a382.593,382.593,0,0,0,0,182L38.841,483.39,116.427,634.6,117,654.976a380.066,380.066,0,0,0,157.549,91.058l12.494-10.488H465.823l20.629,10.488A380.066,380.066,0,0,0,644,654.976l-1.055-13.86,90.092-165.552,16.981-4.065a382.567,382.567,0,0,0,0-182Z" fill="#f6f9f9"/>
      <path id="Path_5564" data-name="Path 5564" d="M351.738,20.165h-71.97l-5.22-5.2A380.068,380.068,0,0,0,117,106.024l1.981,20.376L37.82,277.683,10.98,289.5a382.593,382.593,0,0,0,0,182L38.841,483.39,116.427,634.6,117,654.976a380.066,380.066,0,0,0,157.549,91.058l12.494-10.488h50.153C194.757,680.548,93.706,542.339,93.706,380.5c0-167.3,107.974-309.354,258.033-360.335Z" fill="#ececef"/>
      <g id="Group_66129" data-name="Group 66129">
        <path id="Path_5565" data-name="Path 5565" d="M380.5,647.962a11.486,11.486,0,0,1-11.485-11.485V502.9a11.485,11.485,0,0,1,22.97,0V636.477A11.485,11.485,0,0,1,380.5,647.962Z" fill="#ececef"/>
      </g>
      <g id="Group_66130" data-name="Group 66130">
        <path id="Path_5566" data-name="Path 5566" d="M380.5,271.46a11.486,11.486,0,0,1-11.485-11.485V126.4a11.485,11.485,0,1,1,22.97,0V259.974A11.485,11.485,0,0,1,380.5,271.46Z" fill="#ececef"/>
      </g>
      <g id="Group_66131" data-name="Group 66131">
        <path id="Path_5567" data-name="Path 5567" d="M601.359,520.445a11.421,11.421,0,0,1-5.731-1.541L479.952,452.119a11.484,11.484,0,1,1,11.485-19.892l115.676,66.785a11.486,11.486,0,0,1-5.754,21.433Z" fill="#ececef"/>
      </g>
      <g id="Group_66132" data-name="Group 66132">
        <path id="Path_5568" data-name="Path 5568" d="M275.3,332.193a11.421,11.421,0,0,1-5.731-1.541L153.888,263.865a11.484,11.484,0,1,1,11.485-19.892L281.051,310.76a11.486,11.486,0,0,1-5.754,21.433Z" fill="#ececef"/>
      </g>
      <g id="Group_66133" data-name="Group 66133">
        <path id="Path_5569" data-name="Path 5569" d="M485.7,332.193a11.486,11.486,0,0,1-5.754-21.433l115.678-66.785a11.485,11.485,0,1,1,11.485,19.892L491.434,330.652A11.421,11.421,0,0,1,485.7,332.193Z" fill="#ececef"/>
      </g>
      <g id="Group_66134" data-name="Group 66134">
        <path id="Path_5570" data-name="Path 5570" d="M159.641,520.445a11.486,11.486,0,0,1-5.754-21.433l115.679-66.787a11.484,11.484,0,0,1,11.485,19.892L165.372,518.9A11.436,11.436,0,0,1,159.641,520.445Z" fill="#ececef"/>
      </g>
      <path id="Path_5571" data-name="Path 5571" d="M49.365,311.662a14,14,0,0,0,14,0l91.947-53.086a14,14,0,0,0,7-12.128V140.275a14,14,0,0,0-7-12.128L117,106.024A380.075,380.075,0,0,0,10.981,289.5Z" fill="#392f46"/>
      <path id="Path_5572" data-name="Path 5572" d="M63.37,311.662l41.8-24.135a378.646,378.646,0,0,1,57.148-125V140.275a14.006,14.006,0,0,0-7-12.128L117,106.024A380.24,380.24,0,0,0,10.981,289.5l38.384,22.161a14,14,0,0,0,14,0Z" fill="#251f29"/>
      <path id="Path_5573" data-name="Path 5573" d="M281.551,71.437,373.5,124.523a14,14,0,0,0,14,0l91.947-53.086a14,14,0,0,0,7-12.128V14.966a382.527,382.527,0,0,0-211.9,0V59.309A14,14,0,0,0,281.551,71.437Z" fill="#392f46"/>
      <path id="Path_5574" data-name="Path 5574" d="M380.5,0h-.051a382.232,382.232,0,0,0-105.9,14.964V56.555a378.139,378.139,0,0,1,152.8-53.682A388.077,388.077,0,0,0,380.5,0Z" fill="#251f29"/>
      <path id="Path_5575" data-name="Path 5575" d="M605.683,258.577l91.947,53.086a14,14,0,0,0,14,0L750.019,289.5A380.075,380.075,0,0,0,644,106.024l-38.318,22.123a14.007,14.007,0,0,0-7,12.128V246.447a14.008,14.008,0,0,0,7,12.13Z" fill="#392f46"/>
      <path id="Path_5576" data-name="Path 5576" d="M668.977,258.577a14.006,14.006,0,0,1-7-12.128V140.275a13.982,13.982,0,0,1,4.749-10.47Q655.877,117.43,644,106.023l-38.318,22.123a14.005,14.005,0,0,0-7,12.128V246.445a14.006,14.006,0,0,0,7,12.128l91.947,53.086a14,14,0,0,0,14,0l24.645-14.229Z" fill="#251f29"/>
      <path id="Path_5577" data-name="Path 5577" d="M117,654.976l38.318-22.123a14.006,14.006,0,0,0,7-12.128V514.552a14.006,14.006,0,0,0-7-12.128L63.37,449.338a14,14,0,0,0-14,0L10.981,471.5A380.064,380.064,0,0,0,117,654.976Z" fill="#392f46"/>
      <path id="Path_5578" data-name="Path 5578" d="M117,654.976l38.318-22.123a14.006,14.006,0,0,0,7-12.128V598.476a378.69,378.69,0,0,1-57.148-125l-41.8-24.135a14,14,0,0,0-14.006,0L10.98,471.5A380.1,380.1,0,0,0,117,654.976Z" fill="#251f29"/>
      <path id="Path_5579" data-name="Path 5579" d="M711.636,449.338a14,14,0,0,0-14,0l-91.947,53.086a14.006,14.006,0,0,0-7,12.128V620.723a14.007,14.007,0,0,0,7,12.128L644,654.974A380.075,380.075,0,0,0,750.021,471.5Z" fill="#392f46"/>
      <path id="Path_5580" data-name="Path 5580" d="M661.975,620.725V514.553a14.005,14.005,0,0,1,7-12.128l67.3-38.857-24.645-14.229a14,14,0,0,0-14,0l-91.947,53.086a14.006,14.006,0,0,0-7,12.128V620.725a14,14,0,0,0,7,12.128L644,654.976q11.865-11.395,22.721-23.783A13.978,13.978,0,0,1,661.975,620.725Z" fill="#251f29"/>
      <path id="Path_5581" data-name="Path 5581" d="M486.451,746.034V701.691a14,14,0,0,0-7-12.128L387.5,636.477a14,14,0,0,0-14,0l-91.947,53.086a14.006,14.006,0,0,0-7,12.128v44.343a382.528,382.528,0,0,0,211.9,0Z" fill="#392f46"/>
      <path id="Path_5582" data-name="Path 5582" d="M274.549,704.445v41.589A382.058,382.058,0,0,0,380.475,761h.025a388.438,388.438,0,0,0,46.852-2.873,378.118,378.118,0,0,1-152.8-53.682Z" fill="#251f29"/>
      <path id="Path_5583" data-name="Path 5583" d="M372.493,262.118,281.17,314.844a16.016,16.016,0,0,0-8.007,13.869V434.165a16.017,16.017,0,0,0,8.007,13.869l91.323,52.726a16.011,16.011,0,0,0,16.014,0l91.323-52.726a16.012,16.012,0,0,0,8.007-13.869V328.713a16.014,16.014,0,0,0-8.007-13.869l-91.323-52.726a16.011,16.011,0,0,0-16.014,0Z" fill="#392f46"/>
      <path id="Path_5584" data-name="Path 5584" d="M358.957,448.033a16.014,16.014,0,0,1-8.007-13.869V328.712a16.014,16.014,0,0,1,8.007-13.869l60.437-34.893-30.887-17.833a16.011,16.011,0,0,0-16.014,0L281.17,314.843a16.016,16.016,0,0,0-8.007,13.869V434.164a16.014,16.014,0,0,0,8.007,13.869l91.323,52.726a16.011,16.011,0,0,0,16.014,0l30.887-17.833Z" fill="#251f29"/>
    </g>
  </g>
</svg>
