<svg xmlns="http://www.w3.org/2000/svg" xmlns:xlink="http://www.w3.org/1999/xlink"
    width="504" height="508" viewBox="0 0 504 508">
<!--  <defs>-->
<!--    <clipPath id="clip-path">-->
<!--      <rect id="Rectangle_153" data-name="Rectangle 153"-->
<!--          width="504"-->
<!--          height="508"-->
<!--          transform="translate(317.068 640.068)" fill="#251f29"/>-->
<!--    </clipPath>-->
<!--  </defs>-->
  <g id="lives" transform="translate(-317.068 -640.068)" clip-path="url(#clip-path)">
    <g id="play-button" transform="translate(325.832 648.901)">
      <g id="Group_66077" data-name="Group 66077" transform="translate(9.501 9.577)">
        <path id="Path_5454" data-name="Path 5454" d="M234.243,34.027c110.722,0,200.48,90.47,200.48,202.071s-89.758,202.07-200.48,202.07S33.763,347.7,33.763,236.1,123.521,34.027,234.243,34.027ZM467.978,236.1C467.978,105.985,363.33.508,234.243.508S.508,105.985.508,236.1,105.155,471.687,234.243,471.687,467.978,366.211,467.978,236.1Z" transform="translate(-0.508 -0.508)" fill="#251f29"/>
        <path id="Path_5455" data-name="Path 5455" d="M403.245,204.356c0-111.6-89.758-202.071-200.48-202.071S2.285,92.755,2.285,204.356s89.759,202.07,200.48,202.07,200.48-90.47,200.48-202.07ZM171.459,117.023,225.712,148.6c.47.273.924.561,1.374.86l54.348,31.625a27,27,0,0,1,9.835,36.7,26.651,26.651,0,0,1-10.156,10.1l-55.425,32.252.025.048-55.823,32.485a26.6,26.6,0,0,1-36.512-9.809,26.981,26.981,0,0,1-3.6-13.5h-.057V139.413A26.889,26.889,0,0,1,156.5,112.419,26.484,26.484,0,0,1,171.459,117.023Z" transform="translate(30.97 31.234)" fill="#392f46"/>
        <path id="Path_5456" data-name="Path 5456" d="M160.814,76.787,106.466,45.161c-.45-.3-.9-.587-1.374-.86L50.839,12.729a26.484,26.484,0,0,0-14.962-4.6A26.889,26.889,0,0,0,9.1,35.119V165.063h.057a26.981,26.981,0,0,0,3.6,13.5,26.6,26.6,0,0,0,36.512,9.809l55.823-32.485-.025-.048,55.425-32.252a26.645,26.645,0,0,0,10.156-10.1A27,27,0,0,0,160.814,76.787Z" transform="translate(151.59 135.528)" fill="#251f29"/>
      </g>
      <path id="Path_5457" data-name="Path 5457" d="M243.236,0C109.116,0,0,109.982,0,245.167S109.116,490.333,243.236,490.333,486.472,380.352,486.472,245.167,377.357,0,243.236,0Zm0,471.18C119.594,471.18,19,369.791,19,245.167S119.594,19.154,243.236,19.154,467.47,120.543,467.47,245.167,366.879,471.18,243.236,471.18Z" fill="#fff"/>
      <path id="Path_5458" data-name="Path 5458" d="M211.759,1.777C95.975,1.777,1.777,96.723,1.777,213.425s94.2,211.647,209.981,211.647S421.74,330.127,421.74,213.425,327.543,1.777,211.759,1.777Zm0,404.142c-105.306,0-190.979-86.352-190.979-192.493s85.673-192.5,190.979-192.5,190.979,86.352,190.979,192.494S317.064,405.92,211.759,405.92Z" transform="translate(31.477 31.741)" fill="#ededed"/>
      <path id="Path_5459" data-name="Path 5459" d="M37.8,9.308a9.46,9.46,0,0,0-12.979,3.505A178.473,178.473,0,0,0,3.837,70.882,9.5,9.5,0,1,0,22.55,74.214,159.3,159.3,0,0,1,41.275,22.389,9.616,9.616,0,0,0,37.8,9.308Z" transform="translate(65.369 143.289)" fill="#fff"/>
      <path id="Path_5460" data-name="Path 5460" d="M60.974,20.463a9.5,9.5,0,1,0-18.931,1.662A159.239,159.239,0,0,1,21.507,115.41a9.617,9.617,0,0,0,3.478,13.082,9.45,9.45,0,0,0,12.979-3.505A178.417,178.417,0,0,0,60.974,20.463Z" transform="translate(358.322 209.244)" fill="#fff"/>
      <path id="Path_5461" data-name="Path 5461" d="M13.057,12.461a9.54,9.54,0,0,0-9.5,9.577v.582a9.5,9.5,0,1,0,19,0v-.582A9.54,9.54,0,0,0,13.057,12.461Z" transform="translate(62.955 222.546)" fill="#fff"/>
      <path id="Path_5462" data-name="Path 5462" d="M21.59,22.763A9.507,9.507,0,1,0,39.965,17.88l-.161-.606a9.507,9.507,0,1,0-18.352,4.969Z" transform="translate(374.134 181.784)" fill="#fff"/>
      <path id="Path_5463" data-name="Path 5463" d="M174.558,77.562l-54.12-31.493c-.568-.372-1.1-.7-1.6-.993L64.852,13.66A35.892,35.892,0,0,0,44.871,7.617,36.469,36.469,0,0,0,8.588,44.188V174.133a9.605,9.605,0,0,0,.076,1.211,36.762,36.762,0,0,0,4.864,17.085,36.031,36.031,0,0,0,49.484,13.3h0c.293-.17,110.891-64.551,111.158-64.747h0a36.275,36.275,0,0,0,13.71-13.659A36.651,36.651,0,0,0,174.558,77.562ZM171.4,117.779a17.182,17.182,0,0,1-6.529,6.5l-.141.081.141-.081c-.293.17-111.109,64.677-111.376,64.873h0a17.092,17.092,0,0,1-8.6,2.341,17.267,17.267,0,0,1-14.925-8.661,17.453,17.453,0,0,1-2.324-8.692,9.426,9.426,0,0,0-.057-1.037V44.188A17.369,17.369,0,0,1,44.87,26.771a17.056,17.056,0,0,1,9.643,2.962c.184.126.374.245.568.358L165.073,94.159c.305.177-.292-.193,0,0,.156.1-.161-.094,0,0h0a17.379,17.379,0,0,1,6.332,23.62Z" transform="translate(152.097 136.036)" fill="#fff"/>
    </g>
  </g>
</svg>
