<?xml version="1.0"?>
<svg xmlns="http://www.w3.org/2000/svg" id="Capa_1" enable-background="new 0 0 513 513" height="512px" viewBox="0 0 513 513" width="512px" class=""><g><g><g><path d="m397 445.693v-408.193c0-16.569-13.431-30-30-30h-299c-16.569 0-30 13.431-30 30v438c0 16.569 13.431 30 30 30h364.182z" fill="#ffdcce" data-original="#FFDCCE" class="" style="fill:#FFFFFF" data-old_color="#ffdcce"/><path d="m367 505.5h65.182l-35.182-59.807v-408.193c0-16.569-13.431-30-30-30h-30c16.569 0 30 13.431 30 30v408.193z" fill="#ffd1be" data-original="#FFD1BE" class="" style="fill:#E3E9ED" data-old_color="#ffd1be"/><path d="m436 505.5c21.539 0 39-17.461 39-39v-254c0-22.091-17.909-40-40-40h-38v294c0 21.539 17.461 39 39 39z" fill="#fead8a" data-original="#FEAD8A" class="active-path" style="fill:#D1D1D1" data-old_color="#fead8a"/><path d="m106.806 136.237h236.389c9.941 0 18-8.059 18-18v-61.737c0-9.941-8.059-18-18-18h-236.389c-9.941 0-18 8.059-18 18v61.737c0 9.941 8.059 18 18 18z" fill="#fead8a" data-original="#FEAD8A" class="active-path" style="fill:#D1D1D1" data-old_color="#fead8a"/><g><circle cx="247.193" cy="286.5" fill="#f9f7f8" r="104.776" data-original="#F9F7F8" class=""/><path d="m266.718 183.548c31.894 17.963 53.438 52.138 53.438 91.35 0 57.866-46.91 104.776-104.776 104.776-6.673 0-13.198-.631-19.525-1.824 15.172 8.545 32.684 13.426 51.338 13.426 57.866 0 104.776-46.91 104.776-104.776 0-51.193-36.717-93.803-85.251-102.952z" fill="#e5e1e5" data-original="#E5E1E5" class=""/><g fill="#7a6d79"><path d="m243.079 251.214-32.016 23.261c-2.453 1.783-3.48 4.942-2.543 7.826l12.229 37.637c.937 2.884 3.625 4.837 6.657 4.837h39.574c3.033 0 5.72-1.953 6.657-4.837l12.229-37.637c.937-2.884-.089-6.044-2.543-7.826l-32.016-23.261c-2.453-1.783-5.775-1.783-8.228 0z" data-original="#7A6D79" class="" style="fill:#5F7D95" data-old_color="#7A6D79"/><path d="m280.155 187.009-29.435 21.385c-2.103 1.528-4.95 1.528-7.053 0l-29.435-21.385c7.382-2.427 18.061-5.038 31.098-5.269 14.871-.262 26.937 2.678 34.825 5.269z" data-original="#7A6D79" class="" style="fill:#5F7D95" data-old_color="#7A6D79"/><path d="m162.757 224.407 11.243 34.603c.803 2.472-.077 5.18-2.18 6.708l-29.435 21.385c-.087-8.086.729-20.252 5.405-34.115 4.31-12.774 10.33-22.341 14.967-28.581z" data-original="#7A6D79" class="" style="fill:#5F7D95" data-old_color="#7A6D79"/><path d="m162.047 347.615h36.383c2.599 0 4.903 1.674 5.706 4.146l11.243 34.603c-7.683-2.464-18.779-6.992-30.334-15.504-11.002-8.105-18.392-16.854-22.998-23.245z" data-original="#7A6D79" class="" style="fill:#5F7D95" data-old_color="#7A6D79"/></g><path d="m213.198 379.648c-5.907-.122-11.693-.735-17.322-1.794 4.781 2.691 11.428 5.912 19.495 8.484z" fill="#685e68" data-original="#685E68" class="" style="fill:#374957" data-old_color="#685e68"/><path d="m279.006 386.364 11.243-34.603c.803-2.472 3.107-4.146 5.706-4.146h36.383c-4.647 6.451-12.23 15.439-23.629 23.706-11.327 8.216-22.155 12.624-29.703 15.043z" fill="#685e68" data-original="#685E68" class="" style="fill:#374957" data-old_color="#685e68"/><path d="m352 287.104-29.435-21.385c-2.103-1.528-2.983-4.236-2.18-6.708l11.243-34.603c4.695 6.388 10.907 16.359 15.251 29.744 4.332 13.348 5.164 25.035 5.121 32.952z" fill="#685e68" data-original="#685E68" class="" style="fill:#374957" data-old_color="#685e68"/></g></g><path d="m368.694 118.237v-61.737c0-14.061-11.439-25.5-25.5-25.5h-236.388c-14.061 0-25.5 11.439-25.5 25.5v61.737c0 14.061 11.439 25.5 25.5 25.5h236.389c14.06 0 25.499-11.439 25.499-25.5zm-15 0c0 5.79-4.71 10.5-10.5 10.5h-236.388c-5.79 0-10.5-4.71-10.5-10.5v-61.737c0-5.79 4.71-10.5 10.5-10.5h236.389c5.79 0 10.5 4.71 10.5 10.5v61.737zm81.306 46.763h-8c-4.143 0-7.5 3.357-7.5 7.5s3.357 7.5 7.5 7.5h8c17.921 0 32.5 14.579 32.5 32.5v254c0 17.369-14.131 31.5-31.5 31.5s-31.5-14.131-31.5-31.5v-429c0-20.678-16.822-37.5-37.5-37.5h-299c-20.678 0-37.5 16.822-37.5 37.5v283.695c0 4.143 3.357 7.5 7.5 7.5s7.5-3.357 7.5-7.5v-283.695c0-12.406 10.094-22.5 22.5-22.5h299c12.406 0 22.5 10.094 22.5 22.5v429c0 12.143 4.684 23.209 12.333 31.5h-333.833c-12.406 0-22.5-10.094-22.5-22.5v-124.305c0-4.143-3.357-7.5-7.5-7.5s-7.5 3.357-7.5 7.5v124.305c0 20.678 16.822 37.5 37.5 37.5h368c25.641 0 46.5-20.859 46.5-46.5v-254c0-26.191-21.309-47.5-47.5-47.5zm-346.194 113.55h10.438c4.143 0 7.5-3.357 7.5-7.5s-3.357-7.5-7.5-7.5h-10.438c-4.143 0-7.5 3.357-7.5 7.5s3.357 7.5 7.5 7.5zm158.387-104.325c-59.559 0-113.029 51.588-112.258 113.689.752 60.566 51.817 110.862 112.258 110.862 59.619 0 112.283-50.049 112.275-112.29-.008-61.896-50.956-112.261-112.275-112.261zm76.056 51.702-10.321 31.763-24.611 11.144-33.625-24.43v-29.625l26.647-19.361c16.591 6.239 31.038 16.886 41.91 30.509zm-44.627 54.402-12.006 36.946h-38.846l-12.005-36.946 31.429-22.834zm-31.429-91.104c5.259 0 10.42.425 15.455 1.233l-15.455 11.229-15.456-11.229c5.036-.808 10.197-1.233 15.456-1.233zm-34.148 6.192 26.648 19.361v29.625l-33.625 24.43-24.611-11.144-10.321-31.763c10.873-13.622 25.32-24.269 41.909-30.509zm-52.411 46.725 5.897 18.149-15.461 11.233c1.619-10.43 4.899-20.318 9.564-29.382zm5.435 97.973c-9.453-14.255-15.251-31.132-16.051-49.287l26.209-19.041 24.612 11.144 13.05 40.165-14.553 17.02h-33.267zm12.238 15h19.033l5.896 18.147c-9.257-4.709-17.666-10.856-24.929-18.147zm94.794 25.152c-8.252 2.283-16.939 3.509-25.908 3.509s-17.656-1.226-25.909-3.509l-10.063-30.971 14.553-17.02h42.836l14.553 17.02zm18.047-7.004 5.896-18.147h19.034c-7.262 7.29-15.671 13.437-24.93 18.147zm37.169-33.148h-33.267l-14.553-17.02 13.051-40.165 24.611-11.144 26.209 19.041c-.8 18.157-6.598 35.033-16.051 49.288zm-.463-79.824 5.897-18.149c4.664 9.065 7.945 18.952 9.564 29.382zm-239.048 93.07h25.438c4.143 0 7.5-3.357 7.5-7.5s-3.357-7.5-7.5-7.5h-25.438c-4.143 0-7.5 3.357-7.5 7.5s3.357 7.5 7.5 7.5zm0 90.414h257.389c4.143 0 7.5-3.357 7.5-7.5s-3.357-7.5-7.5-7.5h-257.389c-4.143 0-7.5 3.357-7.5 7.5s3.357 7.5 7.5 7.5zm354.694 22.725v-249c0-4.143-3.357-7.5-7.5-7.5s-7.5 3.357-7.5 7.5v249c0 4.143 3.357 7.5 7.5 7.5s7.5-3.357 7.5-7.5zm-354.694 7.275h257.389c4.143 0 7.5-3.357 7.5-7.5s-3.357-7.5-7.5-7.5h-257.389c-4.143 0-7.5 3.357-7.5 7.5s3.357 7.5 7.5 7.5zm0-270.038h42.422c4.143 0 7.5-3.357 7.5-7.5s-3.357-7.5-7.5-7.5h-42.422c-4.143 0-7.5 3.357-7.5 7.5s3.357 7.5 7.5 7.5zm0 112.219h10.438c4.143 0 7.5-3.357 7.5-7.5s-3.357-7.5-7.5-7.5h-10.438c-4.143 0-7.5 3.357-7.5 7.5s3.357 7.5 7.5 7.5zm0-74.812h15.772c4.143 0 7.5-3.357 7.5-7.5s-3.357-7.5-7.5-7.5h-15.772c-4.143 0-7.5 3.357-7.5 7.5s3.357 7.5 7.5 7.5z" data-original="#000000" class="" style="fill:#251F29" data-old_color="#000000"/></g></g> </svg>
