<svg xmlns="http://www.w3.org/2000/svg" xmlns:xlink="http://www.w3.org/1999/xlink" width="77" height="77" viewBox="0 0 77 77">
<!--  <defs>-->
<!--    <clipPath id="clip-path">-->
<!--      <rect id="Rectangle_174" data-name="Rectangle 174" width="73" height="73" transform="translate(0.301 0.301)" fill="#fff"/>-->
<!--    </clipPath>-->
<!--  </defs>-->
  <g id="soccer" transform="translate(-189.013 -10.013)">
    <circle id="Ellipse_35" data-name="Ellipse 35" cx="38.5" cy="38.5" r="38.5" transform="translate(189.013 10.013)" fill="#fff"/>
    <g id="Mask_Group_25" data-name="Mask Group 25" transform="translate(190.712 11.712)" clip-path="url(#clip-path)">
      <g id="mega-ball">
        <path id="Path_5603" data-name="Path 5603" d="M72.54,41.518l-1-.378L62.234,24.9l.053-1.125a36.762,36.762,0,0,0-15.238-8.807l-.712.5H27.059l-.5-.5a36.757,36.757,0,0,0-15.238,8.807l.192,1.971L3.658,40.375l-2.6,1.143a37,37,0,0,0,0,17.6l2.695,1.15,7.5,14.625.055,1.971a36.759,36.759,0,0,0,15.238,8.807l1.208-1.014H45.053l2,1.014a36.759,36.759,0,0,0,15.238-8.807l-.1-1.341L70.9,59.514l1.642-.393a37,37,0,0,0,0-17.6Z" transform="translate(0 -13.518)" fill="#f6f9f9"/>
        <path id="Path_5604" data-name="Path 5604" d="M34.019,15.467H27.059l-.5-.5a36.759,36.759,0,0,0-15.238,8.807l.192,1.971L3.658,40.374l-2.6,1.143a37,37,0,0,0,0,17.6l2.695,1.15,7.5,14.625.055,1.971a36.759,36.759,0,0,0,15.238,8.807l1.208-1.014h4.851a36.812,36.812,0,0,1,1.407-69.19Z" transform="translate(0 -13.517)" fill="#ececef"/>
        <g id="Group_66136" data-name="Group 66136" transform="translate(35.69 47.529)">
          <path id="Path_5605" data-name="Path 5605" d="M370.126,506.559a1.111,1.111,0,0,1-1.111-1.111V492.53a1.111,1.111,0,1,1,2.222,0v12.919A1.111,1.111,0,0,1,370.126,506.559Z" transform="translate(-369.015 -491.419)" fill="#ececef"/>
        </g>
        <g id="Group_66137" data-name="Group 66137" transform="translate(35.69 11.114)">
          <path id="Path_5606" data-name="Path 5606" d="M370.126,130.056a1.111,1.111,0,0,1-1.111-1.111V116.026a1.111,1.111,0,1,1,2.222,0v12.919A1.111,1.111,0,0,1,370.126,130.056Z" transform="translate(-369.015 -114.915)" fill="#ececef"/>
        </g>
        <g id="Group_66138" data-name="Group 66138" transform="translate(45.864 41.655)">
          <path id="Path_5607" data-name="Path 5607" d="M486.505,439.367a1.1,1.1,0,0,1-.554-.149l-11.188-6.459a1.111,1.111,0,1,1,1.111-1.924l11.188,6.459a1.111,1.111,0,0,1-.556,2.073Z" transform="translate(-474.207 -430.686)" fill="#ececef"/>
        </g>
        <g id="Group_66139" data-name="Group 66139" transform="translate(14.328 23.447)">
          <path id="Path_5608" data-name="Path 5608" d="M160.442,251.113a1.1,1.1,0,0,1-.554-.149L148.7,244.5a1.111,1.111,0,0,1,1.111-1.924L161,249.041a1.111,1.111,0,0,1-.556,2.073Z" transform="translate(-148.144 -242.432)" fill="#ececef"/>
        </g>
        <g id="Group_66140" data-name="Group 66140" transform="translate(45.864 23.448)">
          <path id="Path_5609" data-name="Path 5609" d="M475.317,251.115a1.111,1.111,0,0,1-.556-2.073l11.188-6.459a1.111,1.111,0,1,1,1.111,1.924l-11.188,6.459A1.1,1.1,0,0,1,475.317,251.115Z" transform="translate(-474.204 -242.434)" fill="#ececef"/>
        </g>
        <g id="Group_66141" data-name="Group 66141" transform="translate(14.328 41.655)">
          <path id="Path_5610" data-name="Path 5610" d="M149.255,439.366a1.111,1.111,0,0,1-.556-2.073l11.188-6.459A1.111,1.111,0,0,1,161,432.758l-11.188,6.459A1.106,1.106,0,0,1,149.255,439.366Z" transform="translate(-148.143 -430.685)" fill="#ececef"/>
        </g>
        <path id="Path_5611" data-name="Path 5611" d="M14.693,125.913a1.354,1.354,0,0,0,1.354,0l8.893-5.134a1.354,1.354,0,0,0,.677-1.173V109.337a1.354,1.354,0,0,0-.677-1.173l-3.706-2.14A36.76,36.76,0,0,0,10.981,123.77Z" transform="translate(-9.919 -95.77)" fill="#392f46"/>
        <path id="Path_5612" data-name="Path 5612" d="M16.048,125.913l4.043-2.334a36.622,36.622,0,0,1,5.527-12.09v-2.152a1.355,1.355,0,0,0-.677-1.173l-3.706-2.14A36.776,36.776,0,0,0,10.981,123.77l3.712,2.143a1.354,1.354,0,0,0,1.354,0Z" transform="translate(-9.919 -95.77)" fill="#251f29"/>
        <path id="Path_5613" data-name="Path 5613" d="M275.226,6.909l8.893,5.134a1.355,1.355,0,0,0,1.354,0l8.893-5.134a1.354,1.354,0,0,0,.677-1.173V1.447a37,37,0,0,0-20.495,0V5.736A1.354,1.354,0,0,0,275.226,6.909Z" transform="translate(-247.995)" fill="#392f46"/>
        <path id="Path_5614" data-name="Path 5614" d="M284.8,0h0a36.969,36.969,0,0,0-10.242,1.447V5.47A36.573,36.573,0,0,1,289.328.278,37.533,37.533,0,0,0,284.8,0Z" transform="translate(-247.995)" fill="#251f29"/>
        <path id="Path_5615" data-name="Path 5615" d="M599.357,120.779l8.893,5.134a1.355,1.355,0,0,0,1.354,0l3.712-2.143a36.76,36.76,0,0,0-10.254-17.745l-3.706,2.14a1.355,1.355,0,0,0-.677,1.173v10.269A1.355,1.355,0,0,0,599.357,120.779Z" transform="translate(-540.777 -95.77)" fill="#392f46"/>
        <path id="Path_5616" data-name="Path 5616" d="M605.48,120.777a1.355,1.355,0,0,1-.677-1.173V109.336a1.352,1.352,0,0,1,.459-1.013q-1.049-1.2-2.2-2.3l-3.706,2.14a1.355,1.355,0,0,0-.677,1.173V119.6a1.355,1.355,0,0,0,.677,1.173l8.893,5.134a1.355,1.355,0,0,0,1.354,0l2.384-1.376Z" transform="translate(-540.778 -95.769)" fill="#251f29"/>
        <path id="Path_5617" data-name="Path 5617" d="M21.235,467.532l3.706-2.14a1.355,1.355,0,0,0,.677-1.173V453.951a1.354,1.354,0,0,0-.677-1.173l-8.893-5.134a1.354,1.354,0,0,0-1.354,0l-3.712,2.143A36.759,36.759,0,0,0,21.235,467.532Z" transform="translate(-9.919 -404.184)" fill="#392f46"/>
        <path id="Path_5618" data-name="Path 5618" d="M21.233,467.531l3.706-2.14a1.355,1.355,0,0,0,.677-1.173v-2.152a36.627,36.627,0,0,1-5.527-12.09l-4.043-2.334a1.354,1.354,0,0,0-1.355,0l-3.712,2.143A36.763,36.763,0,0,0,21.233,467.531Z" transform="translate(-9.918 -404.184)" fill="#251f29"/>
        <path id="Path_5619" data-name="Path 5619" d="M609.606,447.643a1.354,1.354,0,0,0-1.354,0l-8.893,5.134a1.354,1.354,0,0,0-.677,1.173v10.269a1.355,1.355,0,0,0,.677,1.173l3.706,2.14a36.76,36.76,0,0,0,10.254-17.745Z" transform="translate(-540.778 -404.184)" fill="#392f46"/>
        <path id="Path_5620" data-name="Path 5620" d="M604.8,464.22V453.951a1.355,1.355,0,0,1,.677-1.173l6.509-3.758-2.384-1.376a1.354,1.354,0,0,0-1.354,0l-8.893,5.134a1.355,1.355,0,0,0-.677,1.173V464.22a1.354,1.354,0,0,0,.677,1.173l3.706,2.14q1.148-1.1,2.2-2.3A1.352,1.352,0,0,1,604.8,464.22Z" transform="translate(-540.778 -404.185)" fill="#251f29"/>
        <path id="Path_5621" data-name="Path 5621" d="M295.043,645.378V641.09a1.354,1.354,0,0,0-.677-1.173l-8.893-5.134a1.355,1.355,0,0,0-1.354,0l-8.893,5.134a1.355,1.355,0,0,0-.677,1.173v4.289a37,37,0,0,0,20.495,0Z" transform="translate(-247.995 -573.224)" fill="#392f46"/>
        <path id="Path_5622" data-name="Path 5622" d="M274.549,704.445v4.022a36.952,36.952,0,0,0,10.245,1.447h0a37.578,37.578,0,0,0,4.531-.278A36.571,36.571,0,0,1,274.549,704.445Z" transform="translate(-247.995 -636.313)" fill="#251f29"/>
        <path id="Path_5623" data-name="Path 5623" d="M282.77,260.18l-8.833,5.1a1.549,1.549,0,0,0-.774,1.341v10.2a1.549,1.549,0,0,0,.774,1.341l8.833,5.1a1.548,1.548,0,0,0,1.549,0l8.833-5.1a1.549,1.549,0,0,0,.774-1.341v-10.2a1.549,1.549,0,0,0-.774-1.341l-8.833-5.1A1.548,1.548,0,0,0,282.77,260.18Z" transform="translate(-246.744 -234.829)" fill="#392f46"/>
        <path id="Path_5624" data-name="Path 5624" d="M281.461,278.16a1.549,1.549,0,0,1-.774-1.341v-10.2a1.549,1.549,0,0,1,.774-1.341l5.845-3.375-2.987-1.725a1.548,1.548,0,0,0-1.549,0l-8.833,5.1a1.549,1.549,0,0,0-.774,1.341v10.2a1.549,1.549,0,0,0,.774,1.341l8.833,5.1a1.549,1.549,0,0,0,1.549,0l2.987-1.725Z" transform="translate(-246.744 -234.827)" fill="#251f29"/>
      </g>
    </g>
  </g>
</svg>
