<svg xmlns="http://www.w3.org/2000/svg" width="18" height="19" viewBox="0 0 18 19">
  <g id="Group_65953" data-name="Group 65953" transform="translate(-252 -600)">
    <circle id="Ellipse_9" data-name="Ellipse 9" cx="9" cy="9" r="9" transform="translate(252 601)" fill="#392f46"/>
    <g id="tshirt" transform="translate(231.65 600)">
      <path id="Path_5227" data-name="Path 5227" d="M35.783,1.629A11.734,11.734,0,0,0,32,.013.364.364,0,0,0,31.56.3a.408.408,0,0,0-.009.085c0,.521-1.009,1.157-2.186,1.157S27.179.91,27.179.389a.4.4,0,0,0-.137-.3A.341.341,0,0,0,26.734.01a11.775,11.775,0,0,0-3.788,1.616c-1.213,1.014-1.558,5.9-1.595,6.453a.39.39,0,0,0,.205.373,8.268,8.268,0,0,0,2.709.795v8.117a.389.389,0,0,0,.194.34c.059.034,1.489.817,4.906.817s4.847-.783,4.906-.817a.389.389,0,0,0,.194-.34V9.247a8.269,8.269,0,0,0,2.708-.795.39.39,0,0,0,.206-.373C37.343,7.525,37,2.64,35.783,1.629Z" transform="translate(0 0)" fill="#fff"/>
      <g id="Group_65897" data-name="Group 65897" transform="translate(23.67 3.856)">
        <path id="Path_5228" data-name="Path 5228" d="M86.647,112.285a.386.386,0,0,1-.386-.386v-2.315a3.086,3.086,0,0,0-.659-2.042.386.386,0,0,1,.546-.546,3.772,3.772,0,0,1,.885,2.587V111.9A.386.386,0,0,1,86.647,112.285Z" transform="translate(-85.494 -106.879)" fill="#392f46"/>
        <path id="Path_5229" data-name="Path 5229" d="M384.339,112.012a.386.386,0,0,1-.386-.386v-2.315a3.772,3.772,0,0,1,.884-2.588.386.386,0,1,1,.555.536l-.009.009a3.086,3.086,0,0,0-.658,2.042v2.315A.386.386,0,0,1,384.339,112.012Z" transform="translate(-374.102 -106.606)" fill="#392f46"/>
      </g>
      <path id="Path_5230" data-name="Path 5230" d="M176.74.164a.38.38,0,0,0-.318-.082,23.354,23.354,0,0,1-2.628.379,23.336,23.336,0,0,1-2.628-.379.381.381,0,0,0-.318.082.386.386,0,0,0-.14.3c0,1.157,1.6,1.929,3.086,1.929s3.086-.772,3.086-1.929A.386.386,0,0,0,176.74.164Z" transform="translate(-144.429 -0.072)" fill="#392f46"/>
    </g>
  </g>
</svg>
